<?xml version="1.0" standalone="no"?>
<!DOCTYPE svg PUBLIC "-//W3C//DTD SVG 20010904//EN"
 "http://www.w3.org/TR/2001/REC-SVG-20010904/DTD/svg10.dtd">
<svg version="1.0" xmlns="http://www.w3.org/2000/svg"
 width="512.000000pt" height="512.000000pt" viewBox="0 0 512.000000 512.000000"
 preserveAspectRatio="xMidYMid meet">

<g transform="translate(0.000000,512.000000) scale(0.100000,-0.100000)"
fill="#000000" stroke="none">
<path d="M3760 4971 l0 -148 68 -7 c358 -35 643 -320 678 -678 l7 -68 148 0
149 0 0 36 c0 55 -20 172 -42 249 -101 351 -372 622 -723 723 -77 22 -194 42
-249 42 l-36 0 0 -149z"/>
<path d="M3671 4509 c-259 -51 -421 -333 -335 -583 l17 -48 -247 -247 -246
-246 -530 530 -529 529 -37 -34 c-66 -63 -202 -220 -250 -288 -118 -168 -218
-401 -266 -622 -19 -91 -22 -134 -22 -325 0 -189 3 -234 22 -320 28 -130 56
-221 68 -218 5 2 56 19 114 40 100 36 111 37 230 37 167 0 276 -32 410 -120
296 -193 415 -568 284 -893 -19 -47 -33 -85 -31 -86 1 -1 45 -14 97 -29 164
-45 283 -58 490 -53 203 5 335 28 509 89 104 36 302 138 393 202 68 48 225
184 288 250 l34 37 -529 529 -530 530 246 246 247 247 48 -17 c261 -89 540 81
586 358 50 300 -229 564 -531 505z"/>
<path d="M1571 2409 c-227 -44 -391 -278 -353 -505 32 -196 180 -344 376 -376
289 -48 556 219 508 508 -42 255 -281 422 -531 373z"/>
<path d="M1110 1382 c-6 -37 -48 -294 -94 -572 l-82 -505 -312 -3 -312 -2 0
-150 0 -150 1350 0 1350 0 0 150 0 150 -312 2 -312 3 -82 505 c-46 278 -88
535 -94 572 l-12 68 -56 -51 c-63 -56 -224 -139 -312 -160 -30 -8 -107 -14
-170 -14 -63 0 -140 6 -170 14 -88 21 -249 104 -312 160 l-56 51 -12 -68z"/>
</g>
</svg>
