<?xml version="1.0" standalone="no"?>
<!DOCTYPE svg PUBLIC "-//W3C//DTD SVG 20010904//EN"
 "http://www.w3.org/TR/2001/REC-SVG-20010904/DTD/svg10.dtd">
<svg version="1.0" xmlns="http://www.w3.org/2000/svg"
 width="200.000000pt" height="200.000000pt" viewBox="0 0 200.000000 200.000000"
 preserveAspectRatio="xMidYMid meet">

<g transform="translate(0.000000,200.000000) scale(0.100000,-0.100000)"
fill="#000000" stroke="none">
<path d="M748 1289 c-134 -117 -249 -219 -255 -227 -31 -38 2 -102 50 -102 51
0 56 -18 59 -244 4 -261 -5 -248 167 -244 l116 3 3 170 c2 120 6 171 15 177 6
4 59 8 117 8 58 0 111 -4 117 -8 9 -6 13 -57 15 -177 l3 -170 109 -3 c165 -4
156 -17 156 228 0 213 6 247 47 255 13 3 34 7 48 10 32 7 52 47 39 79 -5 13
-121 121 -258 240 -199 173 -255 216 -277 216 -23 0 -78 -42 -271 -211z"/>
</g>
</svg>
