<?xml version="1.0" standalone="no"?>
<!DOCTYPE svg PUBLIC "-//W3C//DTD SVG 20010904//EN"
 "http://www.w3.org/TR/2001/REC-SVG-20010904/DTD/svg10.dtd">
<svg version="1.0" xmlns="http://www.w3.org/2000/svg"
 width="300.000000pt" height="300.000000pt" viewBox="0 0 300.000000 300.000000"
 preserveAspectRatio="xMidYMid meet">

<g transform="translate(0.000000,300.000000) scale(0.100000,-0.100000)"
fill="#000000" stroke="none">
<path d="M1438 2657 c-14 -8 -145 -109 -289 -223 -145 -115 -301 -239 -348
-276 l-84 -67 -296 -3 c-333 -3 -333 -3 -372 -79 -18 -36 -19 -63 -19 -504 0
-499 1 -506 51 -551 45 -40 80 -44 364 -44 l272 0 357 -285 c371 -295 386
-305 459 -291 43 8 94 58 107 104 14 53 14 2068 -1 2127 -16 64 -56 97 -121
102 -34 3 -63 -1 -80 -10z m-88 -1157 c0 -390 -3 -710 -7 -710 -5 0 -120 90
-256 199 -137 110 -256 203 -265 208 -9 4 -125 10 -257 13 l-240 5 0 285 0
285 235 5 c194 4 240 8 265 22 17 9 138 102 270 207 132 105 243 191 247 191
5 0 8 -319 8 -710z"/>
<path d="M2050 2008 c-63 -17 -110 -78 -110 -141 0 -50 43 -108 179 -240 66
-66 121 -122 121 -126 0 -3 -63 -69 -140 -146 -149 -149 -169 -180 -156 -248
17 -88 113 -140 199 -108 14 5 89 73 168 150 l144 141 135 -134 c74 -74 149
-141 167 -150 111 -56 230 37 207 162 -6 30 -33 63 -151 184 -123 125 -143
149 -135 165 6 10 71 78 145 150 117 115 136 138 142 173 16 98 -58 180 -155
171 -51 -5 -78 -25 -210 -157 l-146 -144 -134 136 c-165 165 -194 183 -270
162z"/>
</g>
</svg>
