<?xml version="1.0" standalone="no"?>
<!DOCTYPE svg PUBLIC "-//W3C//DTD SVG 20010904//EN"
 "http://www.w3.org/TR/2001/REC-SVG-20010904/DTD/svg10.dtd">
<svg version="1.0" xmlns="http://www.w3.org/2000/svg"
 width="512.000000pt" height="512.000000pt" viewBox="0 0 512.000000 512.000000"
 preserveAspectRatio="xMidYMid meet">

<g transform="translate(0.000000,512.000000) scale(0.100000,-0.100000)"
fill="#000000" stroke="none">
<path d="M2129 4547 c-36 -18 -1556 -1318 -1722 -1472 -87 -81 -108 -177 -57
-260 12 -20 52 -60 89 -89 36 -29 401 -345 811 -701 410 -357 766 -665 792
-686 64 -50 150 -82 199 -74 46 8 101 64 120 122 9 26 14 140 16 370 l4 333
52 15 c214 64 515 79 714 37 304 -65 566 -214 811 -460 262 -264 470 -594 649
-1031 64 -158 106 -155 136 11 54 292 71 497 64 776 -6 247 -24 387 -76 588
-190 728 -723 1260 -1547 1544 -209 72 -506 138 -746 165 l-58 6 0 328 c0 367
-5 403 -64 466 -30 32 -38 35 -88 35 -37 0 -69 -7 -99 -23z"/>
</g>
</svg>
